<svg xmlns="http://www.w3.org/2000/svg" viewBox="0 0 517 287" aria-labelledby="logo-title">
<title id="logo-title">The Contrast Triangle</title>
<g data-name="Layer 1"><path d="M75 37.7V0H0v64.25h68.28L43 37.7h32zM446.72 64.25H517V0h-75v37.7h30l-25.28 26.55zM221 224.67V287h75v-64.25h-.17l-38.33 40.26-36.5-38.34z"/></g><g data-name="Layer 2"><path d="M122.59 81.36v32h-4.48v-32h-10.33V77.5h25.39l-.52 3.86zM159.4 93.72v19.66H155v-19c0-4.23-1.77-5.58-4.59-5.58-3.13 0-5.37 2-7.25 5v19.61h-4.36V75l4.38-.52v15.38a10.15 10.15 0 018.34-4.53c4.96 0 7.88 3.23 7.88 8.39zM189.58 101.18h-17.67c.47 6.62 3.49 9.22 7.66 9.22a11.66 11.66 0 007.2-2.45l1.93 2.61a14.56 14.56 0 01-9.44 3.44c-7.56 0-12-5.37-12-14.08s4.27-14.59 11.26-14.59c7.35 0 11.16 5.16 11.16 13.45.01.94-.04 1.82-.1 2.4zm-4.22-3.65c0-5.53-2.19-8.71-6.73-8.71-3.8 0-6.36 2.71-6.72 9.12h13.45zM234.26 80.37l-2.45 2.92a10.73 10.73 0 00-7-2.66c-5.63 0-10.27 3.81-10.27 14.81 0 10.48 4.49 14.7 10.22 14.7 3.44 0 5.63-1.46 7.67-3l2.29 2.92a13.91 13.91 0 01-10.11 4c-8.61 0-14.86-6.52-14.86-18.56 0-12.2 6.67-18.56 14.8-18.56a13.91 13.91 0 019.71 3.43zM262.47 99.61c0 8.6-4.43 14.39-12.1 14.39s-12-5.58-12-14.28 4.43-14.39 12.09-14.39 12.01 5.52 12.01 14.28zm-19.47.11c0 7.24 2.61 10.74 7.35 10.74s7.41-3.5 7.41-10.85-2.61-10.74-7.36-10.74-7.4 3.49-7.4 10.85zM291.25 93.72v19.66h-4.38v-19c0-4.23-1.72-5.58-4.54-5.58-3.23 0-5.42 2-7.3 5v19.56h-4.38V86h3.76l.36 4.12a10.43 10.43 0 018.6-4.74c5.01-.05 7.88 3.13 7.88 8.34zM308.61 114c-4.54 0-7.25-2.66-7.25-7.66v-17h-4.74V86h4.74v-6.36l4.38-.47V86h6.62l-.47 3.39h-6.15v16.79c0 2.87 1 4.22 3.44 4.22a6.92 6.92 0 003.81-1.2l1.67 3a10.51 10.51 0 01-6.05 1.8zM334 85.64l-.79 4.27a8.87 8.87 0 00-2.39-.31c-3.5 0-5.48 2.45-6.73 7.72v16.06h-4.38V86h3.75l.42 5.74c1.46-4.23 4-6.36 7.41-6.36a11.08 11.08 0 012.71.26zM359.07 110.93L358 114c-2.66-.36-4.38-1.46-5.11-4.22a9.36 9.36 0 01-8.24 4.22c-5.42 0-8.65-3.39-8.65-8.29 0-5.84 4.38-9 11.89-9h4.48v-2.16c0-4.06-1.93-5.63-5.89-5.63a22.77 22.77 0 00-7.4 1.52L338 87.2a25.62 25.62 0 019.28-1.87c6.52 0 9.49 3.33 9.49 9v12.72c.01 2.57.84 3.35 2.3 3.88zm-6.67-4.75v-6.52h-3.91c-5.11 0-7.82 1.93-7.82 5.84 0 3.34 1.72 5.17 5 5.17 2.98 0 5.17-1.52 6.73-4.49zM383.32 88.45l-1.93 2.92a11.23 11.23 0 00-7.09-2.55c-3.24 0-5.32 1.51-5.32 3.86s1.56 3.39 6.1 4.59c5.79 1.51 9 3.7 9 8.49 0 5.58-5.06 8.24-10.58 8.24a14.94 14.94 0 01-10.28-3.6l2.45-2.76a11.71 11.71 0 007.72 2.82c3.65 0 6.1-1.72 6.1-4.28 0-3-1.41-4.07-6.83-5.53-5.89-1.56-8.24-4-8.24-7.92 0-4.28 4.12-7.4 9.7-7.4a14.38 14.38 0 019.2 3.12zM398.64 114c-4.53 0-7.24-2.66-7.24-7.66v-17h-4.75V86h4.75v-6.36l4.38-.47V86h6.62l-.47 3.39h-6.15v16.79c0 2.87 1 4.22 3.44 4.22a6.86 6.86 0 003.8-1.2l1.67 3a10.46 10.46 0 01-6.05 1.8zM178.48 143.93v32H174v-32h-10.33v-3.86h25.39l-.52 3.86zM204.81 148.2l-.78 4.28a8.6 8.6 0 00-2.4-.32c-3.5 0-5.48 2.45-6.73 7.72v16.06h-4.38v-27.43h3.76l.41 5.74c1.46-4.22 4-6.36 7.41-6.36a11 11 0 012.71.31zM215.75 138.61a3.1 3.1 0 11-3.12-3 3 3 0 013.12 3zm-5.26 37.33v-27.43h4.38v27.43zM245.47 173.49l-1 3.07c-2.66-.36-4.38-1.46-5.11-4.22a9.36 9.36 0 01-8.24 4.22c-5.42 0-8.65-3.38-8.65-8.29 0-5.83 4.38-9 11.89-9h4.48v-2.13c0-4.07-1.93-5.63-5.89-5.63a23.09 23.09 0 00-7.45 1.49l-1.09-3.23a25.44 25.44 0 019.28-1.88c6.52 0 9.49 3.34 9.49 9v12.72c0 2.58.82 3.39 2.29 3.88zm-6.67-4.75v-6.51h-3.91c-5.11 0-7.82 1.93-7.82 5.84 0 3.33 1.72 5.16 5 5.16 2.98 0 5.16-1.51 6.73-4.49zM273.89 156.28v19.66h-4.38v-19c0-4.22-1.72-5.58-4.54-5.58-3.23 0-5.42 2-7.3 5.06v19.55h-4.38v-27.46h3.76l.36 4.12a10.45 10.45 0 018.6-4.74c4.99 0 7.88 3.18 7.88 8.39zM297.56 150.44c3.18 1.41 4.79 3.7 4.79 7 0 5.37-3.86 9.23-10.32 9.23a11 11 0 01-3.49-.52 3.26 3.26 0 00-1.54 2.75c0 1.3.84 2.35 3.76 2.35h4.38c5.58 0 9.23 3.18 9.23 7.45 0 5.27-4.23 8.24-12.62 8.24-8.81 0-11.68-2.66-11.68-8.19h4c0 3.29 1.57 4.75 7.72 4.75s8.21-1.62 8.21-4.5-2.13-4.07-5.68-4.07h-4.33c-4.79 0-7-2.4-7-5.11a5.8 5.8 0 013-4.8 7.92 7.92 0 01-4.59-7.66c0-5.58 4.38-9.49 10.43-9.49 6.93.15 9.33-.89 12.41-2.3l1.3 4a28.89 28.89 0 01-7.98.87zm-11.74 6.94c0 3.86 2.19 6.41 6.05 6.41s6-2.35 6-6.41-2-6.31-6.1-6.31c-3.91 0-5.95 2.66-5.95 6.31zM316.64 172.92a4.66 4.66 0 001.77-.32l1.15 3.08a9 9 0 01-3.86.88c-3.34 0-5.27-2-5.27-5.89v-33.21l4.38-.52v33.68c0 1.51.47 2.3 1.83 2.3zM345.62 163.74H328c.47 6.62 3.49 9.23 7.66 9.23a11.66 11.66 0 007.2-2.45l1.93 2.6a14.56 14.56 0 01-9.44 3.44c-7.56 0-12-5.37-12-14.07s4.27-14.6 11.26-14.6c7.35 0 11.16 5.16 11.16 13.45-.04.94-.09 1.83-.15 2.4zm-4.22-3.65c0-5.53-2.19-8.71-6.73-8.71-3.8 0-6.36 2.71-6.72 9.13h13.45z"/></g></svg>
