<svg xmlns="http://www.w3.org/2000/svg" viewBox="0 0 517 287"><title>Artboard 1</title><g id="Layer_1" data-name="Layer 1"><polygon points="75 37.7 75 0 0 0 0 64.25 68.28 64.25 43 37.7 75 37.7"/><polygon points="446.72 64.25 517 64.25 517 0 442 0 442 37.7 472 37.7 446.72 64.25"/><polygon points="221 224.67 221 287 296 287 296 222.75 295.83 222.75 257.5 263.01 221 224.67"/></g><g id="Layer_2" data-name="Layer 2"><path d="M122.59,81.36v32h-4.48v-32H107.78V77.5h25.39l-.52,3.86Z"/><path d="M159.4,93.72v19.66H155v-19c0-4.23-1.77-5.58-4.59-5.58-3.13,0-5.37,2-7.25,5v19.61H138.8V75l4.38-.52V89.86a10.15,10.15,0,0,1,8.34-4.53C156.48,85.33,159.4,88.56,159.4,93.72Z"/><path d="M189.58,101.18H171.91c.47,6.62,3.49,9.22,7.66,9.22a11.66,11.66,0,0,0,7.2-2.45l1.93,2.61a14.56,14.56,0,0,1-9.44,3.44c-7.56,0-12-5.37-12-14.08s4.27-14.59,11.26-14.59c7.35,0,11.16,5.16,11.16,13.45C189.69,99.72,189.64,100.6,189.58,101.18Zm-4.22-3.65c0-5.53-2.19-8.71-6.73-8.71-3.8,0-6.36,2.71-6.72,9.12h13.45Z"/><path d="M234.26,80.37l-2.45,2.92a10.73,10.73,0,0,0-7-2.66c-5.63,0-10.27,3.81-10.27,14.81,0,10.48,4.49,14.7,10.22,14.7,3.44,0,5.63-1.46,7.67-3l2.29,2.92a13.91,13.91,0,0,1-10.11,4c-8.61,0-14.86-6.52-14.86-18.56,0-12.2,6.67-18.56,14.8-18.56A13.91,13.91,0,0,1,234.26,80.37Z"/><path d="M262.47,99.61c0,8.6-4.43,14.39-12.1,14.39s-12-5.58-12-14.28,4.43-14.39,12.09-14.39S262.47,90.85,262.47,99.61ZM243,99.72c0,7.24,2.61,10.74,7.35,10.74s7.41-3.5,7.41-10.85-2.61-10.74-7.36-10.74S243,92.36,243,99.72Z"/><path d="M291.25,93.72v19.66h-4.38v-19c0-4.23-1.72-5.58-4.54-5.58-3.23,0-5.42,2-7.3,5v19.56h-4.38V86h3.76l.36,4.12a10.43,10.43,0,0,1,8.6-4.74C288.38,85.33,291.25,88.51,291.25,93.72Z"/><path d="M308.61,114c-4.54,0-7.25-2.66-7.25-7.66v-17h-4.74V86h4.74V79.64l4.38-.47V86h6.62l-.47,3.39h-6.15v16.79c0,2.87,1,4.22,3.44,4.22a6.92,6.92,0,0,0,3.81-1.2l1.67,3A10.51,10.51,0,0,1,308.61,114Z"/><path d="M334,85.64l-.79,4.27a8.87,8.87,0,0,0-2.39-.31c-3.5,0-5.48,2.45-6.73,7.72v16.06h-4.38V86h3.75l.42,5.74c1.46-4.23,4-6.36,7.41-6.36A11.08,11.08,0,0,1,334,85.64Z"/><path d="M359.07,110.93,358,114c-2.66-.36-4.38-1.46-5.11-4.22a9.36,9.36,0,0,1-8.24,4.22c-5.42,0-8.65-3.39-8.65-8.29,0-5.84,4.38-9,11.89-9h4.48V94.55c0-4.06-1.93-5.63-5.89-5.63a22.77,22.77,0,0,0-7.4,1.52L338,87.2a25.62,25.62,0,0,1,9.28-1.87c6.52,0,9.49,3.33,9.49,9v12.72C356.78,109.62,357.61,110.4,359.07,110.93Zm-6.67-4.75V99.66h-3.91c-5.11,0-7.82,1.93-7.82,5.84,0,3.34,1.72,5.17,5,5.17C348.65,110.67,350.84,109.15,352.4,106.18Z"/><path d="M383.32,88.45l-1.93,2.92a11.23,11.23,0,0,0-7.09-2.55c-3.24,0-5.32,1.51-5.32,3.86s1.56,3.39,6.1,4.59c5.79,1.51,9,3.7,9,8.49,0,5.58-5.06,8.24-10.58,8.24a14.94,14.94,0,0,1-10.28-3.6l2.45-2.76a11.71,11.71,0,0,0,7.72,2.82c3.65,0,6.1-1.72,6.1-4.28,0-3-1.41-4.07-6.83-5.53-5.89-1.56-8.24-4-8.24-7.92,0-4.28,4.12-7.4,9.7-7.4A14.38,14.38,0,0,1,383.32,88.45Z"/><path d="M398.64,114c-4.53,0-7.24-2.66-7.24-7.66v-17h-4.75V86h4.75V79.64l4.38-.47V86h6.62l-.47,3.39h-6.15v16.79c0,2.87,1,4.22,3.44,4.22a6.86,6.86,0,0,0,3.8-1.2l1.67,3A10.46,10.46,0,0,1,398.64,114Z"/><path d="M178.48,143.93v32H174v-32H163.67v-3.86h25.39l-.52,3.86Z"/><path d="M204.81,148.2l-.78,4.28a8.6,8.6,0,0,0-2.4-.32c-3.5,0-5.48,2.45-6.73,7.72v16.06h-4.38V148.51h3.76l.41,5.74c1.46-4.22,4-6.36,7.41-6.36A11,11,0,0,1,204.81,148.2Z"/><path d="M215.75,138.61a3.1,3.1,0,1,1-3.12-3A3,3,0,0,1,215.75,138.61Zm-5.26,37.33V148.51h4.38v27.43Z"/><path d="M245.47,173.49l-1,3.07c-2.66-.36-4.38-1.46-5.11-4.22a9.36,9.36,0,0,1-8.24,4.22c-5.42,0-8.65-3.38-8.65-8.29,0-5.83,4.38-9,11.89-9h4.48v-2.13c0-4.07-1.93-5.63-5.89-5.63A23.09,23.09,0,0,0,225.5,153l-1.09-3.23a25.44,25.44,0,0,1,9.28-1.88c6.52,0,9.49,3.34,9.49,9v12.72C243.18,172.19,244,173,245.47,173.49Zm-6.67-4.75v-6.51h-3.91c-5.11,0-7.82,1.93-7.82,5.84,0,3.33,1.72,5.16,5,5.16C235.05,173.23,237.23,171.72,238.8,168.74Z"/><path d="M273.89,156.28v19.66h-4.38v-19c0-4.22-1.72-5.58-4.54-5.58-3.23,0-5.42,2-7.3,5.06v19.55h-4.38V148.51h3.76l.36,4.12a10.45,10.45,0,0,1,8.6-4.74C271,147.89,273.89,151.07,273.89,156.28Z"/><path d="M297.56,150.44c3.18,1.41,4.79,3.7,4.79,7,0,5.37-3.86,9.23-10.32,9.23a11,11,0,0,1-3.49-.52A3.26,3.26,0,0,0,287,168.9c0,1.3.84,2.35,3.76,2.35h4.38c5.58,0,9.23,3.18,9.23,7.45,0,5.27-4.23,8.24-12.62,8.24-8.81,0-11.68-2.66-11.68-8.19h4c0,3.29,1.57,4.75,7.72,4.75S300,181.88,300,179s-2.13-4.07-5.68-4.07h-4.33c-4.79,0-7-2.4-7-5.11a5.8,5.8,0,0,1,3-4.8,7.92,7.92,0,0,1-4.59-7.66c0-5.58,4.38-9.49,10.43-9.49,6.93.15,9.33-.89,12.41-2.3l1.3,4A28.89,28.89,0,0,1,297.56,150.44Zm-11.74,6.94c0,3.86,2.19,6.41,6.05,6.41s6-2.35,6-6.41-2-6.31-6.1-6.31C287.86,151.07,285.82,153.73,285.82,157.38Z"/><path d="M316.64,172.92a4.66,4.66,0,0,0,1.77-.32l1.15,3.08a9,9,0,0,1-3.86.88c-3.34,0-5.27-2-5.27-5.89V137.46l4.38-.52v33.68C314.81,172.13,315.28,172.92,316.64,172.92Z"/><path d="M345.62,163.74H328c.47,6.62,3.49,9.23,7.66,9.23a11.66,11.66,0,0,0,7.2-2.45l1.93,2.6a14.56,14.56,0,0,1-9.44,3.44c-7.56,0-12-5.37-12-14.07s4.27-14.6,11.26-14.6c7.35,0,11.16,5.16,11.16,13.45C345.73,162.28,345.68,163.17,345.62,163.74Zm-4.22-3.65c0-5.53-2.19-8.71-6.73-8.71-3.8,0-6.36,2.71-6.72,9.13H341.4Z"/></g></svg>